# xmcd
# Track frame offsets:
# 182
# 18105
# 29347
# 40965
# 59910
# 72135
# 89232
# 106297
# 123092
# 135215
# 148365
# 159842
#
# Disc length: 2297 seconds
# Revision: 0
# Processed by: cddbd v1.4PL0 Copyright (c) Steve Scherf et al.
# Submitted via: VisiTrax 2.9.5.181 - For more info visit www.synapsa.com
#
DISCID=a408f70c
DTITLE=Brian Young - People And Places I've Known
DYEAR=1997
DGENRE=Country
TTITLE0=The Land Of The Gagudju Man
TTITLE1=Riversleigh Run
TTITLE2=No More Restless Boots
TTITLE3=Wilcannia Ball
TTITLE4=Big Old Gulf Land
TTITLE5=I Will Still Love You
TTITLE6=Reading This Letter
TTITLE7=I'M Glad I Lived My Youth Back When I Did
TTITLE8=The Might Kalkadoos
TTITLE9=They Say In Kajabbi Their Railway Is Done
TTITLE10=A Delver's Life
TTITLE11=Come On Reg Lindsay
EXTD=
EXTT0=
EXTT1=
EXTT2=
EXTT3=
EXTT4=
EXTT5=
EXTT6=
EXTT7=
EXTT8=
EXTT9=
EXTT10=
EXTT11=
PLAYORDER=
